<?xml version="1.0" standalone="no"?><!DOCTYPE svg PUBLIC "-//W3C//DTD SVG 1.1//EN" "http://www.w3.org/Graphics/SVG/1.1/DTD/svg11.dtd"><svg t="1686206158298" class="icon" viewBox="0 0 1024 1024" version="1.1" xmlns="http://www.w3.org/2000/svg" p-id="10775" xmlns:xlink="http://www.w3.org/1999/xlink" width="200" height="200"><path d="M691.473067 62.754133H251.921067a143.086933 143.086933 0 0 0-143.36 143.36V802.133333c0 37.922133 15.36 73.472 42.666666 100.693334a141.653333 141.653333 0 0 0 91.221334 41.472H440.32a32 32 0 1 0 0-63.982934H251.921067c-42.666667 0-78.1824-35.5328-78.1824-78.199466V206.114133c0-42.666667 35.5328-78.199467 78.1824-78.199466h439.552c42.666667 0 78.199467 35.549867 78.199466 78.199466v261.8368a32 32 0 0 0 63.982934 0V206.114133c0-79.377067-63.982933-143.36-142.1824-143.36z" p-id="10776"></path><path d="M652.373333 271.36h-366.08a32 32 0 1 0 0 63.982933h366.08A31.863467 31.863467 0 0 0 684.373333 303.274667c1.1776-17.783467-13.038933-32-32-32zM513.706667 469.128533H286.293333a32 32 0 1 0 0 63.982934h226.286934a32.426667 32.426667 0 0 0 22.510933-9.472 33.092267 33.092267 0 0 0 9.472-23.7056c1.194667-16.5888-13.038933-30.805333-30.805333-30.805334z m-130.269867 197.853867h-95.965867a31.931733 31.931733 0 0 0-28.433066 16.5888 31.044267 31.044267 0 0 0 0 32c5.922133 9.472 16.5888 16.5888 28.433066 16.5888h95.965867a31.8976 31.8976 0 0 0 28.433067-16.5888 31.044267 31.044267 0 0 0 0-32c-7.099733-9.472-17.7664-16.5888-28.433067-16.5888zM848.896 542.020267l-74.308267 1.501866-1.467733 70.587734-11.946667 11.946666-70.946133 2.184534-2.133333 69.7856c-53.213867-26.845867-120.7296-17.322667-166.212267 28.16-56.32 56.32-57.565867 146.551467-2.696533 201.386666s145.066667 53.674667 201.386666-2.679466c45.687467-45.704533 55.125333-113.629867 27.8016-166.946134l147.746134-147.729066c16.810667-16.810667 17.3568-43.537067 1.211733-59.733334l-1.160533-1.160533a41.352533 41.352533 0 0 0-47.342934-7.458133zM661.009067 865.365333c-22.562133 22.545067-58.624 23.022933-80.571734 1.0752s-21.486933-58.026667 1.0752-80.571733 58.606933-23.022933 80.554667-1.0752 21.486933 58.026667-1.058133 80.571733z" p-id="10777"></path></svg>