<?xml version="1.0" standalone="no"?><!DOCTYPE svg PUBLIC "-//W3C//DTD SVG 1.1//EN" "http://www.w3.org/Graphics/SVG/1.1/DTD/svg11.dtd"><svg t="1686206139383" class="icon" viewBox="0 0 1024 1024" version="1.1" xmlns="http://www.w3.org/2000/svg" p-id="10494" xmlns:xlink="http://www.w3.org/1999/xlink" width="200" height="200"><path d="M517 878l-69.7-38.1-30.6-16.7-30.7 16.6-86.9 47.3-86.7-47.3-30.6-16.7-30.6 16.7-22.6 12.3V160c0-17.7 14.3-32 32-32h511.6c17.7 0 32 14.3 32 32v381c0 17.7 14.3 32 32 32s32-14.3 32-32V128c0-35.3-26.2-64-58.6-64H123.2c-32.4 0-58.6 28.7-58.6 64v832l117.2-64 117.3 64 117.5-64 69.7 38.1c21.3 11.7 47.3-3.8 47.3-28.1 0-11.7-6.3-22.4-16.6-28z" p-id="10495"></path><path d="M576.2 256H256.4c-17.7 0-32 14.3-32 32s14.3 32 32 32h319.8c17.7 0 32-14.3 32-32s-14.3-32-32-32zM576.2 416H256.4c-17.7 0-32 14.3-32 32s14.3 32 32 32h319.8c17.7 0 32-14.3 32-32s-14.3-32-32-32zM512.3 576H256.4c-17.7 0-32 14.3-32 32s14.3 32 32 32h255.8c17.7 0 32-14.3 32-32s-14.3-32-31.9-32z" p-id="10496"></path><path d="M779.5 904.3L667.1 791.9c-12.5-12.5-32.8-12.5-45.3 0s-12.5 32.8 0 45.3l112.4 112.4c12.5 12.5 32.8 12.5 45.3 0s12.5-32.8 0-45.3zM769.8 833.7c8.2 0 16.4-3.1 22.6-9.4l103.1-103.1v53.7c0 17.7 14.3 32 32 32s32-14.3 32-32v-131-0.2-1.4c0-0.3 0-0.5-0.1-0.8 0-0.3 0-0.5-0.1-0.8 0-0.3-0.1-0.6-0.1-0.9 0-0.2 0-0.4-0.1-0.6 0-0.3-0.1-0.7-0.2-1 0-0.2-0.1-0.3-0.1-0.5-0.1-0.3-0.1-0.7-0.2-1 0-0.2-0.1-0.3-0.1-0.5-0.1-0.3-0.2-0.6-0.3-1-0.1-0.2-0.1-0.4-0.2-0.5l-0.3-0.9c-0.1-0.2-0.1-0.4-0.2-0.6-0.1-0.3-0.2-0.5-0.3-0.8-0.1-0.2-0.2-0.5-0.3-0.7-0.1-0.2-0.2-0.5-0.3-0.7-0.1-0.3-0.2-0.5-0.4-0.8l-0.3-0.6c-0.1-0.3-0.3-0.6-0.4-0.8-0.1-0.2-0.2-0.3-0.3-0.5-0.2-0.3-0.3-0.6-0.5-0.9-0.1-0.1-0.2-0.3-0.3-0.4l-0.6-0.9c-0.1-0.1-0.2-0.3-0.3-0.4-0.2-0.3-0.4-0.6-0.6-0.8-0.1-0.2-0.2-0.3-0.4-0.5s-0.4-0.5-0.6-0.7c-0.2-0.2-0.4-0.4-0.5-0.6-0.2-0.2-0.3-0.4-0.5-0.6-0.7-0.8-1.5-1.5-2.2-2.2-0.2-0.2-0.4-0.3-0.6-0.5-0.2-0.2-0.4-0.4-0.6-0.5-0.2-0.2-0.5-0.4-0.8-0.6-0.2-0.1-0.3-0.2-0.5-0.4-0.3-0.2-0.6-0.4-0.8-0.6-0.1-0.1-0.3-0.2-0.4-0.3l-0.9-0.6c-0.1-0.1-0.3-0.2-0.4-0.3-0.3-0.2-0.6-0.3-0.9-0.5-0.2-0.1-0.3-0.2-0.5-0.3-0.3-0.2-0.6-0.3-0.8-0.4l-0.6-0.3c-0.3-0.1-0.5-0.2-0.8-0.4-0.2-0.1-0.5-0.2-0.7-0.3-0.2-0.1-0.5-0.2-0.7-0.3-0.3-0.1-0.5-0.2-0.8-0.3-0.2-0.1-0.4-0.1-0.6-0.2l-0.9-0.3c-0.2-0.1-0.4-0.1-0.5-0.2-0.3-0.1-0.6-0.2-1-0.3-0.2 0-0.3-0.1-0.5-0.1-0.3-0.1-0.7-0.2-1-0.2-0.2 0-0.3-0.1-0.5-0.1-0.3-0.1-0.7-0.1-1-0.2-0.2 0-0.4 0-0.6-0.1-0.3 0-0.6-0.1-1-0.1-0.3 0-0.5 0-0.8-0.1-0.3 0-0.5 0-0.8-0.1h-1.5-131.1c-17.7 0-32 14.3-32 32s14.3 32 32 32h53.7L747.1 779.1c-12.5 12.5-12.5 32.8 0 45.3 6.3 6.2 14.5 9.3 22.7 9.3z" p-id="10497"></path></svg>