<?xml version="1.0" standalone="no"?><!DOCTYPE svg PUBLIC "-//W3C//DTD SVG 1.1//EN" "http://www.w3.org/Graphics/SVG/1.1/DTD/svg11.dtd"><svg t="1686291143864" class="icon" viewBox="0 0 1024 1024" version="1.1" xmlns="http://www.w3.org/2000/svg" p-id="22078" xmlns:xlink="http://www.w3.org/1999/xlink" width="200" height="200"><path d="M320.032 237.398005C327.690667 237.398005 335.370667 234.667339 341.493333 229.120672L480.032 103.808672 480.032 687.723339C480.032 705.387339 494.368 719.723339 512.032 719.723339 529.696 719.723339 544.032 705.387339 544.032 687.723339L544.032 103.808672 682.570667 229.120672C688.693333 234.667339 696.373333 237.398005 704.032 237.398005 712.736 237.398005 721.44 233.856672 727.754667 226.859339 739.616 213.760672 738.592 193.515338 725.493333 181.675338L533.493333 8.000672C532.277333 6.912672 530.762667 6.464672 529.44 5.590005 527.626667 4.374005 525.92 3.115338 523.936 2.304672 521.973333 1.515338 519.989333 1.216672 517.941333 0.832672 515.978667 0.470005 514.122667 0.000672 512.117333 0.000672 509.941333-0.020662 507.872 0.470005 505.738667 0.918005 503.861333 1.280672 502.026667 1.536672 500.234667 2.262005 498.186667 3.094005 496.394667 4.395338 494.517333 5.654005 493.237333 6.528672 491.765333 6.934005 490.570667 8.000672L298.570667 181.675338C285.472 193.515338 284.448 213.760672 296.309333 226.859339 302.624 233.856672 311.306667 237.398005 320.032 237.398005ZM646.677333 258.460405C629.888 252.785739 611.754667 261.788405 606.144 278.535072 600.469333 295.303072 609.472 313.436405 626.218667 319.089739 762.048 364.913739 853.333333 487.345739 853.333333 623.772405 853.333333 802.247072 700.202667 947.463072 512 947.463072 323.776 947.463072 170.666667 802.247072 170.666667 623.772405 170.666667 487.345739 261.930667 364.913739 397.781333 319.089739 414.528 313.436405 423.530667 295.303072 417.856 278.535072 412.245333 261.788405 394.069333 252.807072 377.322667 258.460405 215.424 313.073739 106.666667 459.868405 106.666667 623.772405 106.666667 837.553739 288.490667 1011.463072 512 1011.463072 735.488 1011.463072 917.333333 837.553739 917.333333 623.772405 917.333333 459.868405 808.554667 313.073739 646.677333 258.460405Z" fill="#373838" p-id="22079"></path></svg>