<?xml version="1.0" standalone="no"?><!DOCTYPE svg PUBLIC "-//W3C//DTD SVG 1.1//EN" "http://www.w3.org/Graphics/SVG/1.1/DTD/svg11.dtd"><svg t="1686291151366" class="icon" viewBox="0 0 1024 1024" version="1.1" xmlns="http://www.w3.org/2000/svg" p-id="22633" xmlns:xlink="http://www.w3.org/1999/xlink" width="200" height="200"><path d="M341.341867 506.794667C328.157867 494.997333 307.912533 496.170667 296.157867 509.312 284.381867 522.496 285.512533 542.741333 298.6752 554.496L490.6752 726.144C490.9312 726.378667 491.2512 726.442667 491.528533 726.656 494.216533 728.917333 497.117867 730.730667 500.2752 731.968 500.7872 732.16 501.2992 732.288 501.8112 732.458667 505.096533 733.568 508.488533 734.272 511.944533 734.293333L511.9872 734.293333 512.008533 734.293333 512.029867 734.293333 512.072533 734.293333C515.528533 734.272 518.8992 733.568 522.184533 732.458667 522.717867 732.288 523.229867 732.16 523.741867 731.968 526.8992 730.730667 529.800533 728.917333 532.488533 726.656 532.765867 726.442667 533.085867 726.378667 533.341867 726.144L725.341867 554.496C738.504533 542.741333 739.6352 522.496 727.8592 509.312 716.104533 496.192 695.8592 494.976 682.6752 506.794667L544.008533 630.762667 544.008533 32C544.008533 14.336 529.672533 0 512.008533 0 494.344533 0 480.008533 14.336 480.008533 32L480.008533 630.762667 341.341867 506.794667ZM646.570667 261.1072C629.76 255.432533 611.648 264.5632 606.101333 281.3312 600.512 298.0992 609.557333 316.232533 626.325333 321.821867 762.112 367.0912 853.333333 487.965867 853.333333 622.600533 853.333333 798.813867 700.224 942.173867 512 942.173867 323.797333 942.173867 170.666667 798.813867 170.666667 622.600533 170.666667 487.965867 261.909333 367.0912 397.696 321.821867 414.464 316.232533 423.509333 298.0992 417.92 281.3312 412.352 264.584533 394.197333 255.4752 377.450667 261.1072 215.488 315.101867 106.666667 460.381867 106.666667 622.600533 106.666667 834.0992 288.512 1006.173867 512 1006.173867 735.509333 1006.173867 917.333333 834.0992 917.333333 622.600533 917.333333 460.381867 808.533333 315.101867 646.570667 261.1072Z" fill="#373838" p-id="22634"></path></svg>